# xmcd
#
# Track frame offsets:
# 150
# 12740
# 35355
#
# Disc length: 681 seconds
#
# Revision: 1
# Processed by: cddbd v1.5.2PL0 Copyright (c) Steve Scherf et al.
# Submitted via: CedeCatalogueitor 2.6.0.6 http://personales.ya.com/cdcatalogueitor
#
DISCID=1e02a703
DTITLE=Pleasure - Don0t Look Other Way [CD Promo)
DYEAR=1900
DGENRE=
TTITLE0=Don't Look The Other Way
TTITLE1=This Is All
TTITLE2=We Know What You Want
EXTD=
EXTT0=
EXTT1=
EXTT2=
PLAYORDER=
